<?xml version="1.0" encoding="utf-8"?>
<!-- Generator: Adobe Illustrator 16.0.0, SVG Export Plug-In . SVG Version: 6.00 Build 0)  -->
<!DOCTYPE svg PUBLIC "-//W3C//DTD SVG 1.1//EN" "http://www.w3.org/Graphics/SVG/1.1/DTD/svg11.dtd">
<svg version="1.1"
	 id="svg2" xmlns:dc="http://purl.org/dc/elements/1.1/" xmlns:cc="http://web.resource.org/cc/" xmlns:rdf="http://www.w3.org/1999/02/22-rdf-syntax-ns#" xmlns:svg="http://www.w3.org/2000/svg" xmlns:sodipodi="http://inkscape.sourceforge.net/DTD/sodipodi-0.dtd" xmlns:inkscape="http://www.inkscape.org/namespaces/inkscape" sodipodi:version="0.32" inkscape:version="0.41+cvs" sodipodi:docname="white_c_6.svg" sodipodi:docbase="/home/nicu/Desktop/card_nicu_buculei_01.zip_FILES/cards/white"
	 xmlns="http://www.w3.org/2000/svg" xmlns:xlink="http://www.w3.org/1999/xlink" x="0px" y="0px" width="140px" height="190px"
	 viewBox="0 0 140 190" enable-background="new 0 0 140 190" xml:space="preserve">
<sodipodi:namedview  id="base" pagecolor="#ffffff" bordercolor="#666666" borderopacity="1.0" inkscape:zoom="1.0000000" inkscape:cx="70.000000" inkscape:cy="95.000000" inkscape:window-y="26" inkscape:current-layer="svg2" inkscape:pageopacity="0.0" inkscape:pageshadow="2" inkscape:window-height="791" inkscape:window-x="0" inkscape:window-width="1152">
	</sodipodi:namedview>
<g id="layer1" inkscape:label="Layer 1" inkscape:groupmode="layer">
	<g id="g5630">
		<path id="rect1306" fill="#FFFFFF" stroke="#000000" stroke-width="0.7" d="M18.479,2.922h103.043
			c8.868,0,16.007,7.139,16.007,16.007v153.064c0,8.868-7.139,16.007-16.007,16.007H18.479c-8.868,0-16.007-7.139-16.007-16.007
			V18.929C2.472,10.061,9.611,2.922,18.479,2.922z"/>
	</g>
	<g id="g5495" transform="translate(-448.5000,-231.5000)" inkscape:label="Layer 1" inkscape:groupmode="layer">
	</g>
</g>
<g id="g2352" transform="translate(333.5000,184.5000)">
</g>
<g id="g3925" transform="translate(329.5000,183.5000)">
</g>
<path id="text2666" d="M21.548,28.362c-1.119,0-1.961,0.442-2.527,1.327c-0.554,0.871-0.83,2.184-0.83,3.939
	c0,1.756,0.276,3.076,0.83,3.96c0.565,0.871,1.408,1.307,2.527,1.307c1.13,0,1.972-0.436,2.526-1.307
	c0.565-0.884,0.848-2.205,0.848-3.96c0-1.755-0.282-3.068-0.848-3.939C23.521,28.804,22.678,28.362,21.548,28.362 M29.459,13.948
	v5.548c-1.052-0.603-2.044-1.045-2.975-1.327c-0.931-0.294-1.839-0.442-2.726-0.442c-1.906,0-3.391,0.644-4.454,1.93
	c-1.064,1.273-1.685,3.169-1.862,5.689c0.731-0.657,1.523-1.146,2.377-1.467c0.853-0.335,1.784-0.503,2.792-0.503
	c2.537,0,4.582,0.898,6.133,2.694c1.562,1.796,2.343,4.148,2.343,7.056c0,3.216-0.869,5.796-2.609,7.739
	c-1.739,1.93-4.072,2.895-6.997,2.895c-3.224,0-5.723-1.313-7.496-3.94c-1.762-2.64-2.642-6.379-2.642-11.217
	c0-4.958,1.03-8.852,3.091-11.679c2.072-2.841,4.908-4.262,8.509-4.262c1.142,0,2.249,0.107,3.324,0.322
	C27.343,13.198,28.407,13.52,29.459,13.948"/>
<path id="text3033" d="M118.372,162.89c1.12,0,1.961-0.442,2.527-1.326c0.554-0.871,0.831-2.185,0.831-3.94
	c0-1.756-0.277-3.076-0.831-3.96c-0.566-0.871-1.407-1.307-2.527-1.307c-1.129,0-1.972,0.436-2.526,1.307
	c-0.565,0.885-0.847,2.204-0.847,3.96c0,1.755,0.282,3.069,0.847,3.94C116.4,162.448,117.242,162.89,118.372,162.89
	 M110.461,177.303v-5.548c1.052,0.603,2.043,1.045,2.975,1.326c0.931,0.295,1.839,0.443,2.725,0.443
	c1.906,0,3.392-0.644,4.455-1.931c1.064-1.272,1.685-3.169,1.862-5.688c-0.731,0.656-1.523,1.146-2.376,1.467
	c-0.853,0.335-1.784,0.502-2.793,0.502c-2.537,0-4.581-0.897-6.132-2.694c-1.563-1.795-2.344-4.147-2.344-7.055
	c0-3.217,0.869-5.796,2.609-7.739c1.74-1.931,4.072-2.895,6.998-2.895c3.223,0,5.722,1.313,7.495,3.94
	c1.762,2.64,2.642,6.379,2.642,11.216c0,4.958-1.029,8.852-3.09,11.68c-2.073,2.841-4.91,4.261-8.51,4.262
	c-1.142-0.001-2.249-0.107-3.324-0.322C112.577,178.053,111.513,177.732,110.461,177.303"/>
<path id="path908" sodipodi:nodetypes="cscsssccccccssscsc" d="M21.007,49.606c-2.668,0-4.832,3.265-4.832,7.289
	c0,3.428,4.394,9.195,4.223,11.934c-1.411,0.783-5.77-6.44-8.022-6.44c-2.667,0-4.832,3.265-4.832,7.289s2.165,7.289,4.832,7.289
	c2.313,0,6.278-7.217,8.022-6.565l-2.93,12.879l7.026-0.042c0,0-3.078-12.486-3.082-12.782h0.056v0.014
	c1.708-0.64,5.808,6.635,8.105,6.635c2.667,0,4.832-3.265,4.832-7.289c0-4.023-2.165-7.289-4.832-7.289
	c-2.244,0-6.311,7.104-8.096,6.371c0.025-2.807,4.361-8.58,4.361-12.004C25.838,52.871,23.674,49.606,21.007,49.606z"/>
<path id="path3043" sodipodi:nodetypes="cscsssccccccssscsc" d="M118.343,140.942c2.668,0,4.832-3.265,4.832-7.289
	c0-3.428-4.394-9.195-4.224-11.935c1.411-0.783,5.771,6.44,8.023,6.44c2.668,0,4.832-3.266,4.832-7.289s-2.164-7.289-4.832-7.289
	c-2.313,0-6.278,7.217-8.023,6.566l2.931-12.879l-7.026,0.042c0,0,3.078,12.486,3.082,12.782h-0.056v-0.014
	c-1.708,0.64-5.809-6.635-8.105-6.635c-2.667,0-4.831,3.266-4.831,7.289c0,4.024,2.164,7.289,4.831,7.289
	c2.244,0,6.311-7.104,8.097-6.371c-0.025,2.806-4.362,8.58-4.362,12.003C113.511,137.677,115.676,140.942,118.343,140.942z"/>
<path id="path2242" sodipodi:nodetypes="cscsssccccccssscsc" d="M51.691,45.94c-1.554,0-2.815,1.918-2.815,4.283
	c0,2.015,2.559,5.404,2.46,7.014c-0.822,0.46-3.361-3.785-4.673-3.785c-1.554,0-2.814,1.918-2.814,4.283
	c0,2.364,1.261,4.283,2.814,4.283c1.348,0,3.657-4.241,4.673-3.858l-1.707,7.568l4.093-0.024c0,0-1.793-7.338-1.795-7.512h0.032
	v0.008c0.995-0.376,3.383,3.899,4.722,3.899c1.554,0,2.814-1.919,2.814-4.284c0-2.364-1.261-4.283-2.814-4.283
	c-1.307,0-3.676,4.174-4.716,3.743c0.015-1.649,2.541-5.042,2.541-7.054C54.506,47.858,53.245,45.94,51.691,45.94z"/>
<path id="path2248" sodipodi:nodetypes="cscsssccccccssscsc" d="M87.706,45.94c-1.554,0-2.814,1.918-2.814,4.283
	c0,2.015,2.559,5.404,2.459,7.014c-0.822,0.46-3.361-3.785-4.673-3.785c-1.554,0-2.815,1.918-2.815,4.283
	c0,2.364,1.261,4.283,2.815,4.283c1.348,0,3.657-4.241,4.673-3.858l-1.707,7.568l4.092-0.024c0,0-1.792-7.338-1.795-7.512h0.033
	v0.008c0.996-0.376,3.383,3.899,4.721,3.899c1.554,0,2.815-1.919,2.815-4.284c0-2.364-1.261-4.283-2.815-4.283
	c-1.307,0-3.676,4.174-4.715,3.744c0.015-1.649,2.541-5.042,2.541-7.055C90.521,47.858,89.26,45.94,87.706,45.94z"/>
<path id="path2254" sodipodi:nodetypes="cscsssccccccssscsc" d="M51.691,81.955c-1.554,0-2.815,1.919-2.815,4.284
	c0,2.014,2.559,5.403,2.46,7.013c-0.822,0.46-3.361-3.785-4.673-3.785c-1.554,0-2.814,1.918-2.814,4.283s1.261,4.283,2.814,4.283
	c1.348,0,3.657-4.241,4.673-3.858l-1.707,7.569l4.093-0.025c0,0-1.793-7.337-1.795-7.511h0.032v0.008
	c0.995-0.376,3.383,3.899,4.722,3.899c1.554,0,2.814-1.918,2.814-4.283c0-2.365-1.261-4.284-2.814-4.284
	c-1.307,0-3.676,4.174-4.716,3.744c0.015-1.649,2.541-5.042,2.541-7.054C54.506,83.874,53.245,81.955,51.691,81.955z"/>
<path id="path2252" sodipodi:nodetypes="cscsssccccccssscsc" d="M87.309,101.963c1.554,0,2.814-1.918,2.814-4.283
	c0-2.015-2.559-5.404-2.46-7.014c0.822-0.46,3.361,3.785,4.673,3.785c1.554,0,2.814-1.919,2.814-4.283
	c0-2.365-1.261-4.283-2.814-4.283c-1.347,0-3.657,4.241-4.673,3.858l1.707-7.568L85.276,82.2c0,0,1.794,7.337,1.795,7.511H87.04
	v-0.009c-0.995,0.376-3.383-3.898-4.721-3.898c-1.554,0-2.814,1.918-2.814,4.283c0,2.364,1.261,4.283,2.814,4.283
	c1.307,0,3.676-4.174,4.716-3.744c-0.014,1.649-2.541,5.042-2.541,7.055C84.494,100.045,85.754,101.963,87.309,101.963z"/>
<path id="path2264" sodipodi:nodetypes="cscsssccccccssscsc" d="M88.668,142.98c1.554,0,2.815-1.918,2.815-4.283
	c0-2.015-2.56-5.404-2.46-7.013c0.822-0.46,3.361,3.784,4.673,3.784c1.553,0,2.814-1.919,2.814-4.283
	c0-2.365-1.261-4.284-2.814-4.284c-1.348,0-3.657,4.241-4.673,3.858l1.707-7.568l-4.093,0.025c0,0,1.793,7.337,1.795,7.511H88.4
	v-0.008c-0.995,0.375-3.383-3.899-4.722-3.899c-1.554,0-2.814,1.919-2.814,4.284s1.26,4.283,2.814,4.283
	c1.307,0,3.676-4.174,4.716-3.743c-0.015,1.648-2.541,5.042-2.541,7.054C85.854,141.063,87.115,142.98,88.668,142.98z"/>
<path id="path2260" sodipodi:nodetypes="cscsssccccccssscsc" d="M53.294,142.761c1.553,0,2.814-1.918,2.814-4.283
	c0-2.015-2.56-5.404-2.46-7.014c0.822-0.46,3.361,3.785,4.673,3.785c1.554,0,2.814-1.919,2.814-4.283
	c0-2.365-1.261-4.284-2.814-4.284c-1.348,0-3.657,4.241-4.673,3.858l1.707-7.569l-4.093,0.025c0,0,1.793,7.337,1.795,7.511h-0.032
	V130.5c-0.995,0.376-3.383-3.899-4.721-3.899c-1.554,0-2.814,1.919-2.814,4.284c0,2.364,1.261,4.283,2.814,4.283
	c1.307,0,3.676-4.175,4.716-3.744c-0.014,1.649-2.541,5.042-2.541,7.054C50.479,140.842,51.74,142.761,53.294,142.761z"/>
</svg>
