<?xml version="1.0" encoding="utf-8"?>
<!-- Generator: Adobe Illustrator 16.0.0, SVG Export Plug-In . SVG Version: 6.00 Build 0)  -->
<!DOCTYPE svg PUBLIC "-//W3C//DTD SVG 1.1//EN" "http://www.w3.org/Graphics/SVG/1.1/DTD/svg11.dtd">
<svg version="1.1"
	 id="svg2" xmlns:dc="http://purl.org/dc/elements/1.1/" xmlns:cc="http://web.resource.org/cc/" xmlns:rdf="http://www.w3.org/1999/02/22-rdf-syntax-ns#" xmlns:svg="http://www.w3.org/2000/svg" xmlns:sodipodi="http://inkscape.sourceforge.net/DTD/sodipodi-0.dtd" xmlns:inkscape="http://www.inkscape.org/namespaces/inkscape" sodipodi:docbase="/home/nicu/Desktop/card_nicu_buculei_01.zip_FILES/cards/white" sodipodi:docname="white_c_q.svg" inkscape:version="0.41+cvs" sodipodi:version="0.32"
	 xmlns="http://www.w3.org/2000/svg" xmlns:xlink="http://www.w3.org/1999/xlink" x="0px" y="0px" width="140px" height="190px"
	 viewBox="0 0 140 190" enable-background="new 0 0 140 190" xml:space="preserve">
<sodipodi:namedview  showgrid="false" inkscape:cy="95.000000" inkscape:cx="70.000000" inkscape:zoom="1.0000000" borderopacity="1.0" bordercolor="#666666" pagecolor="#ffffff" id="base" inkscape:window-height="791" inkscape:current-layer="svg2" inkscape:window-y="26" inkscape:window-width="1152" inkscape:window-x="0" inkscape:pageshadow="2" inkscape:pageopacity="0.0">
	</sodipodi:namedview>
<g id="layer1" inkscape:label="Layer 1" inkscape:groupmode="layer">
	<g id="g5630">
		<path id="rect1306" fill="#FFFFFF" stroke="#000000" stroke-width="0.7" d="M18,2h103c8.864,0,16,7.136,16,16v153
			c0,8.864-7.136,16-16,16H18c-8.864,0-16-7.136-16-16V18C2,9.136,9.136,2,18,2z"/>
	</g>
	<g id="g5495" transform="translate(-448.5000,-231.5000)" inkscape:label="Layer 1" inkscape:groupmode="layer">
	</g>
</g>
<path id="text1481" d="M22.039,42.783H21.54c-4.087,0-7.265-1.367-9.536-4.099c-2.271-2.733-3.406-6.537-3.406-11.414
	c0-4.862,1.129-8.673,3.389-11.433c2.27-2.76,5.394-4.139,9.37-4.139c4.021,0,7.149,1.366,9.387,4.099
	c2.248,2.732,3.373,6.557,3.373,11.473c0,3.376-0.598,6.283-1.794,8.721c-1.185,2.438-2.896,4.273-5.133,5.506l5,6.751h-6.097
	L22.039,42.783 M21.357,17.304c-1.949,0-3.461,0.871-4.535,2.612c-1.075,1.741-1.612,4.193-1.612,7.354
	c0,3.215,0.526,5.68,1.579,7.395c1.052,1.702,2.575,2.552,4.568,2.552c1.96,0,3.478-0.871,4.552-2.612
	c1.074-1.742,1.611-4.187,1.611-7.334c0-3.161-0.537-5.613-1.611-7.354C24.835,18.174,23.318,17.304,21.357,17.304"/>
<path id="text4064" d="M116.651,146.088h0.499c4.087,0,7.266,1.366,9.536,4.1c2.271,2.732,3.406,6.537,3.406,11.412
	c0,4.863-1.129,8.674-3.389,11.435c-2.27,2.76-5.394,4.139-9.37,4.139c-4.021,0-7.149-1.364-9.387-4.099
	c-2.248-2.732-3.373-6.559-3.373-11.475c0-3.375,0.598-6.281,1.794-8.721c1.185-2.438,2.896-4.273,5.133-5.506l-5-6.751h6.097
	L116.651,146.088 M117.333,171.566c1.949,0,3.461-0.871,4.535-2.612c1.075-1.741,1.612-4.192,1.612-7.354
	c0-3.215-0.526-5.68-1.578-7.395c-1.052-1.701-2.575-2.553-4.569-2.553c-1.96,0-3.478,0.871-4.552,2.613
	c-1.074,1.74-1.611,4.186-1.611,7.334c0,3.161,0.537,5.612,1.611,7.354C113.855,170.693,115.372,171.566,117.333,171.566"/>
<path id="path908" sodipodi:nodetypes="cscsssccccccssscsc" d="M20.527,48.665c-2.667,0-4.83,3.264-4.83,7.286
	c0,3.427,4.392,9.192,4.222,11.93c-1.41,0.782-5.767-6.438-8.019-6.438c-2.667,0-4.83,3.263-4.83,7.286
	c0,4.022,2.164,7.286,4.83,7.286c2.313,0,6.275-7.214,8.019-6.563L16.99,82.325l7.023-0.042c0,0-3.077-12.481-3.081-12.776h0.056
	v0.014c1.707-0.64,5.806,6.632,8.102,6.632c2.666,0,4.83-3.264,4.83-7.286c0-4.022-2.164-7.285-4.83-7.285
	c-2.243,0-6.308,7.1-8.093,6.368c0.025-2.805,4.359-8.576,4.359-11.999C25.357,51.929,23.194,48.665,20.527,48.665z"/>
<path id="path4052" sodipodi:nodetypes="cscsssccccccssscsc" d="M117.418,139.963c2.666,0,4.83-3.264,4.83-7.286
	c0-3.427-4.392-9.19-4.222-11.93c1.411-0.782,5.768,6.438,8.019,6.438c2.667,0,4.83-3.264,4.83-7.287
	c0-4.021-2.164-7.284-4.83-7.284c-2.313,0-6.275,7.215-8.019,6.563l2.929-12.872l-7.023,0.04c0,0,3.077,12.481,3.081,12.777h-0.055
	v-0.015c-1.708,0.64-5.806-6.633-8.102-6.633c-2.667,0-4.83,3.265-4.83,7.285c0,4.022,2.164,7.286,4.83,7.286
	c2.243,0,6.308-7.101,8.093-6.368c-0.025,2.807-4.36,8.576-4.36,11.999C112.588,136.699,114.752,139.963,117.418,139.963z"/>
<path id="text1481_1_" d="M70.862,120.121h-0.997c-8.174,0-14.531-2.734-19.071-8.199c-4.541-5.465-6.812-13.074-6.812-22.826
	c0-9.727,2.259-17.348,6.778-22.868c4.54-5.519,10.787-8.278,18.74-8.278c8.041,0,14.299,2.732,18.773,8.198
	c4.496,5.465,6.745,13.114,6.745,22.948c0,6.751-1.196,12.564-3.589,17.441c-2.37,4.875-5.792,8.545-10.267,11.01l10.001,13.504
	H78.969L70.862,120.121 M69.5,69.162c-3.898,0-6.922,1.741-9.07,5.225c-2.149,3.482-3.224,8.385-3.224,14.709
	c0,6.429,1.053,11.359,3.157,14.787c2.104,3.404,5.149,5.105,9.137,5.105c3.921,0,6.956-1.742,9.104-5.225
	c2.148-3.483,3.223-8.374,3.223-14.668c0-6.324-1.074-11.227-3.223-14.709C76.456,70.903,73.42,69.162,69.5,69.162"/>
</svg>
