<?xml version="1.0" encoding="utf-8"?>
<!-- Generator: Adobe Illustrator 16.0.0, SVG Export Plug-In . SVG Version: 6.00 Build 0)  -->
<!DOCTYPE svg PUBLIC "-//W3C//DTD SVG 1.1//EN" "http://www.w3.org/Graphics/SVG/1.1/DTD/svg11.dtd">
<svg version="1.1"
	 id="svg2" xmlns:dc="http://purl.org/dc/elements/1.1/" xmlns:cc="http://web.resource.org/cc/" xmlns:rdf="http://www.w3.org/1999/02/22-rdf-syntax-ns#" xmlns:svg="http://www.w3.org/2000/svg" xmlns:sodipodi="http://inkscape.sourceforge.net/DTD/sodipodi-0.dtd" xmlns:inkscape="http://www.inkscape.org/namespaces/inkscape" sodipodi:docbase="/home/nicu/Desktop/simple" sodipodi:docname="h_q.svg" inkscape:version="0.41" sodipodi:version="0.32"
	 xmlns="http://www.w3.org/2000/svg" xmlns:xlink="http://www.w3.org/1999/xlink" x="0px" y="0px" width="140px" height="190px"
	 viewBox="0 0 140 190" enable-background="new 0 0 140 190" xml:space="preserve">
<sodipodi:namedview  inkscape:cy="95.000000" inkscape:cx="70.000000" inkscape:zoom="1.0000000" borderopacity="1.0" bordercolor="#666666" pagecolor="#ffffff" id="base" inkscape:window-height="791" inkscape:current-layer="svg2" inkscape:window-y="26" inkscape:window-width="1152" inkscape:window-x="0" inkscape:pageshadow="2" inkscape:pageopacity="0.0">
	</sodipodi:namedview>
<g id="layer1" inkscape:label="Layer 1" inkscape:groupmode="layer">
	<g id="g5630">
		<path id="rect1306" fill="#FFFFFF" stroke="#000000" stroke-width="0.7" d="M18,2h103c8.864,0,16,7.136,16,16v153
			c0,8.864-7.136,16-16,16H18c-8.864,0-16-7.136-16-16V18C2,9.136,9.136,2,18,2z"/>
	</g>
	<g id="g5495" transform="translate(-448.5000,-231.5000)" inkscape:label="Layer 1" inkscape:groupmode="layer">
	</g>
</g>
<path id="text1481" fill="#FF0000" d="M22.039,42.783H21.54c-4.087,0-7.265-1.367-9.536-4.099
	c-2.271-2.733-3.406-6.537-3.406-11.414c0-4.862,1.129-8.673,3.389-11.433c2.27-2.76,5.394-4.139,9.37-4.139
	c4.021,0,7.149,1.366,9.387,4.099c2.248,2.732,3.373,6.557,3.373,11.473c0,3.376-0.598,6.283-1.794,8.721
	c-1.185,2.438-2.896,4.273-5.133,5.506l5,6.751h-6.097L22.039,42.783 M21.357,17.304c-1.949,0-3.461,0.871-4.535,2.612
	c-1.075,1.741-1.612,4.193-1.612,7.354c0,3.215,0.526,5.68,1.579,7.395c1.052,1.702,2.575,2.552,4.568,2.552
	c1.96,0,3.478-0.871,4.552-2.612c1.074-1.742,1.611-4.187,1.611-7.334c0-3.161-0.537-5.613-1.611-7.354
	C24.835,18.174,23.318,17.304,21.357,17.304"/>
<path id="text4064" fill="#FF0000" d="M116.651,146.088h0.499c4.087,0,7.266,1.366,9.536,4.1c2.271,2.732,3.406,6.537,3.406,11.412
	c0,4.863-1.129,8.674-3.389,11.435c-2.27,2.76-5.394,4.139-9.37,4.139c-4.021,0-7.149-1.364-9.387-4.099
	c-2.248-2.732-3.373-6.559-3.373-11.475c0-3.375,0.598-6.281,1.794-8.721c1.185-2.438,2.896-4.273,5.133-5.506l-5-6.751h6.097
	L116.651,146.088 M117.333,171.566c1.949,0,3.461-0.871,4.535-2.612c1.075-1.741,1.612-4.192,1.612-7.354
	c0-3.215-0.526-5.68-1.578-7.395c-1.052-1.701-2.575-2.553-4.569-2.553c-1.96,0-3.478,0.871-4.552,2.613
	c-1.074,1.74-1.611,4.186-1.611,7.334c0,3.161,0.537,5.612,1.611,7.354C113.855,170.693,115.372,171.566,117.333,171.566"/>
<g id="g5530">
</g>
<g id="g1390" transform="matrix(0.286388,0.000000,0.000000,0.388772,-29.60833,-9.472414)">
	<path id="path1392" fill="#FF0000" d="M150.703,150.006c-2.803,0.014-5.882,0.52-9.292,1.653
		c-37.167,21.093,12.939,55.106,34.094,84.314l0.61,0.149c23.251-31.924,67.508-67.054,33.692-84.463
		c-26.792-8.9-33.949,20.727-34.198,21.796C175.391,172.523,169.925,149.912,150.703,150.006z"/>
</g>
<g id="g5938" transform="matrix(-0.286388,0.000000,0.000000,-0.388772,168.4700,198.3135)">
	<path id="path5940" fill="#FF0000" d="M150.704,150.007c-2.803,0.013-5.884,0.52-9.292,1.653
		c-37.167,21.093,12.937,55.106,34.091,84.312l0.612,0.151c23.251-31.926,67.506-67.053,33.69-84.463
		c-26.792-8.9-33.948,20.726-34.196,21.796C175.391,172.521,169.924,149.911,150.704,150.007z"/>
</g>
<path id="text1481_1_" fill="#FF0000" d="M70.862,120.121h-0.997c-8.174,0-14.531-2.734-19.071-8.199
	c-4.541-5.465-6.812-13.074-6.812-22.827c0-9.726,2.259-17.348,6.778-22.867c4.54-5.519,10.787-8.278,18.74-8.278
	c8.041,0,14.299,2.732,18.773,8.198c4.496,5.465,6.745,13.114,6.745,22.947c0,6.753-1.196,12.565-3.589,17.442
	c-2.37,4.875-5.792,8.545-10.267,11.01l10.001,13.504H78.969L70.862,120.121 M69.5,69.162c-3.898,0-6.922,1.741-9.07,5.225
	c-2.149,3.482-3.224,8.386-3.224,14.709c0,6.429,1.053,11.36,3.157,14.788c2.104,3.404,5.149,5.105,9.137,5.105
	c3.921,0,6.956-1.742,9.104-5.226c2.148-3.482,3.223-8.374,3.223-14.667c0-6.323-1.074-11.227-3.223-14.709
	C76.456,70.903,73.42,69.162,69.5,69.162"/>
</svg>
