<?xml version="1.0" encoding="utf-8"?>
<!-- Generator: Adobe Illustrator 16.0.0, SVG Export Plug-In . SVG Version: 6.00 Build 0)  -->
<!DOCTYPE svg PUBLIC "-//W3C//DTD SVG 1.1//EN" "http://www.w3.org/Graphics/SVG/1.1/DTD/svg11.dtd">
<svg version="1.1"
	 id="svg2" xmlns:dc="http://purl.org/dc/elements/1.1/" xmlns:cc="http://web.resource.org/cc/" xmlns:rdf="http://www.w3.org/1999/02/22-rdf-syntax-ns#" xmlns:svg="http://www.w3.org/2000/svg" xmlns:sodipodi="http://inkscape.sourceforge.net/DTD/sodipodi-0.dtd" xmlns:inkscape="http://www.inkscape.org/namespaces/inkscape" sodipodi:docbase="/home/nicu/Desktop/simple" sodipodi:docname="h_k.svg" inkscape:version="0.41" sodipodi:version="0.32"
	 xmlns="http://www.w3.org/2000/svg" xmlns:xlink="http://www.w3.org/1999/xlink" x="0px" y="0px" width="140px" height="190px"
	 viewBox="0 0 140 190" enable-background="new 0 0 140 190" xml:space="preserve">
<sodipodi:namedview  inkscape:cy="102.18033" inkscape:cx="70.000000" inkscape:zoom="1.0000000" borderopacity="1.0" bordercolor="#666666" pagecolor="#ffffff" id="base" inkscape:window-height="791" inkscape:current-layer="svg2" inkscape:window-y="26" inkscape:window-width="1152" inkscape:window-x="0" inkscape:pageshadow="2" inkscape:pageopacity="0.0">
	</sodipodi:namedview>
<g id="layer1" inkscape:label="Layer 1" inkscape:groupmode="layer">
	<g id="g5630">
		<path id="rect1306" fill="#FFFFFF" stroke="#000000" stroke-width="0.7" d="M18,2h103c8.864,0,16,7.136,16,16v153
			c0,8.864-7.136,16-16,16H18c-8.864,0-16-7.136-16-16V18C2,9.136,9.136,2,18,2z"/>
	</g>
	<g id="g5495" transform="translate(-448.5000,-231.5000)" inkscape:label="Layer 1" inkscape:groupmode="layer">
	</g>
</g>
<path id="text1481" fill="#FF0000" d="M10.027,12.24h6.396v10.951l9.22-10.951h7.426L21.125,26.446L34.299,42.24h-8.008
	l-9.868-11.815V42.24h-6.396V12.24"/>
<path id="text4064" fill="#FF0000" d="M128.663,176.63h-6.396v-10.95l-9.22,10.95h-7.426l11.945-14.206l-13.174-15.794h8.008
	l9.868,11.815V146.63h6.396L128.663,176.63"/>
<g id="g1390" transform="matrix(0.286388,0.000000,0.000000,0.388772,-29.60833,-9.472414)">
	<path id="path1392" fill="#FF0000" d="M150.703,150.006c-2.803,0.014-5.882,0.52-9.292,1.653
		c-37.167,21.093,12.939,55.106,34.094,84.314l0.61,0.149c23.251-31.924,67.508-67.054,33.692-84.463
		c-26.792-8.9-33.949,20.727-34.198,21.796C175.391,172.523,169.925,149.912,150.703,150.006z"/>
</g>
<g id="g7810" transform="matrix(-0.286429,0.000000,0.000000,-0.388772,168.4791,198.3135)">
	<path id="path7812" fill="#FF0000" d="M150.704,150.007c-2.804,0.013-5.883,0.52-9.292,1.653
		c-37.166,21.093,12.937,55.106,34.094,84.312l0.61,0.151c23.249-31.926,67.507-67.053,33.689-84.463
		c-26.79-8.9-33.948,20.726-34.197,21.796C175.39,172.521,169.925,149.911,150.704,150.007z"/>
</g>
<path id="text1481_1_" fill="#FF0000" d="M45.228,64.5H58.02v21.902L76.46,64.5h14.853l-23.89,28.412L93.772,124.5H77.756
	L58.02,100.869V124.5H45.228V64.5"/>
</svg>
