<?xml version="1.0" encoding="utf-8"?>
<!-- Generator: Adobe Illustrator 16.0.0, SVG Export Plug-In . SVG Version: 6.00 Build 0)  -->
<!DOCTYPE svg PUBLIC "-//W3C//DTD SVG 1.1//EN" "http://www.w3.org/Graphics/SVG/1.1/DTD/svg11.dtd">
<svg version="1.1"
	 id="svg2" xmlns:dc="http://purl.org/dc/elements/1.1/" xmlns:cc="http://web.resource.org/cc/" xmlns:rdf="http://www.w3.org/1999/02/22-rdf-syntax-ns#" xmlns:svg="http://www.w3.org/2000/svg" xmlns:sodipodi="http://inkscape.sourceforge.net/DTD/sodipodi-0.dtd" xmlns:inkscape="http://www.inkscape.org/namespaces/inkscape" sodipodi:docbase="/home/nicu/Desktop/card_nicu_buculei_01.zip_FILES/cards/white" sodipodi:docname="white_s_k.svg" inkscape:version="0.41+cvs" sodipodi:version="0.32"
	 xmlns="http://www.w3.org/2000/svg" xmlns:xlink="http://www.w3.org/1999/xlink" x="0px" y="0px" width="140px" height="190px"
	 viewBox="0 0 140 190" enable-background="new 0 0 140 190" xml:space="preserve">
<sodipodi:namedview  inkscape:cy="95.000000" inkscape:cx="70.000000" inkscape:zoom="1.0000000" borderopacity="1.0" bordercolor="#666666" pagecolor="#ffffff" id="base" inkscape:window-height="791" inkscape:current-layer="svg2" inkscape:window-y="26" inkscape:window-width="1152" inkscape:window-x="0" inkscape:pageshadow="2" inkscape:pageopacity="0.0">
	</sodipodi:namedview>
<g id="layer1" inkscape:label="Layer 1" inkscape:groupmode="layer">
	<g id="g5630">
		<path id="rect1306" fill="#FFFFFF" stroke="#000000" stroke-width="0.7" d="M18,2h103c8.864,0,16,7.136,16,16v153
			c0,8.864-7.136,16-16,16H18c-8.864,0-16-7.136-16-16V18C2,9.136,9.136,2,18,2z"/>
	</g>
	<g id="g5495" transform="translate(-448.5000,-231.5000)" inkscape:label="Layer 1" inkscape:groupmode="layer">
	</g>
</g>
<path id="text1481" d="M10.027,12.24h6.396v10.951l9.22-10.951h7.426L21.125,26.446L34.299,42.24h-8.008l-9.868-11.815V42.24h-6.396
	V12.24"/>
<path id="text4064" d="M128.663,176.63h-6.396v-10.95l-9.22,10.95h-7.426l11.945-14.206l-13.174-15.794h8.008l9.868,11.815V146.63
	h6.396L128.663,176.63"/>
<path id="path1561" sodipodi:nodetypes="cccccccccc" d="M20.774,48.665C15.85,56.49,0.74,69.814,10.312,73.928
	c5.811,1.895,8.576-1.982,9.747-4.549h0.234l-3.859,12.947l8.938-0.038c0,0-3.85-12.445-3.858-12.921h0.094
	c0.946,2.097,4.535,6.439,8.484,4.786C41.637,69.516,24.636,56.327,20.774,48.665z"/>
<path id="path2018" sodipodi:nodetypes="cccccccccc" d="M118.666,140c4.924-7.824,20.035-21.148,10.462-25.264
	c-5.811-1.894-8.576,1.982-9.747,4.551h-0.234l3.859-12.947l-8.938,0.038c0,0,3.85,12.445,3.859,12.921h-0.094
	c-0.946-2.097-4.535-6.438-8.484-4.785C97.803,119.148,114.805,132.338,118.666,140z"/>
<path id="text1481_1_" d="M45.228,64.5H58.02v21.902L76.46,64.5h14.853l-23.89,28.412L93.772,124.5H77.756L58.02,100.869V124.5
	H45.228V64.5"/>
</svg>
