<?xml version="1.0" encoding="utf-8"?>
<!-- Generator: Adobe Illustrator 16.0.0, SVG Export Plug-In . SVG Version: 6.00 Build 0)  -->
<!DOCTYPE svg PUBLIC "-//W3C//DTD SVG 1.1//EN" "http://www.w3.org/Graphics/SVG/1.1/DTD/svg11.dtd">
<svg version="1.1"
	 id="svg2" xmlns:dc="http://purl.org/dc/elements/1.1/" xmlns:cc="http://web.resource.org/cc/" xmlns:rdf="http://www.w3.org/1999/02/22-rdf-syntax-ns#" xmlns:svg="http://www.w3.org/2000/svg" xmlns:sodipodi="http://inkscape.sourceforge.net/DTD/sodipodi-0.dtd" xmlns:inkscape="http://www.inkscape.org/namespaces/inkscape" sodipodi:docbase="/home/nicu/Desktop/simple" sodipodi:docname="d_j.svg" inkscape:version="0.41" sodipodi:version="0.32"
	 xmlns="http://www.w3.org/2000/svg" xmlns:xlink="http://www.w3.org/1999/xlink" x="0px" y="0px" width="140px" height="190px"
	 viewBox="0 0 140 190" enable-background="new 0 0 140 190" xml:space="preserve">
<sodipodi:namedview  inkscape:cy="44.100159" inkscape:cx="70.000000" inkscape:zoom="1.0000000" borderopacity="1.0" bordercolor="#666666" pagecolor="#ffffff" id="base" inkscape:window-height="791" inkscape:current-layer="svg2" inkscape:window-y="26" inkscape:window-width="1152" inkscape:window-x="0" inkscape:pageshadow="2" inkscape:pageopacity="0.0">
	</sodipodi:namedview>
<g id="layer1" inkscape:label="Layer 1" inkscape:groupmode="layer">
	<g id="g5630">
		<path id="rect1306" fill="#FFFFFF" stroke="#000000" stroke-width="0.7" d="M18,2h103c8.864,0,16,7.136,16,16v153
			c0,8.864-7.136,16-16,16H18c-8.864,0-16-7.136-16-16V18C2,9.136,9.136,2,18,2z"/>
	</g>
	<g id="g5495" transform="translate(-448.5000,-231.5000)" inkscape:label="Layer 1" inkscape:groupmode="layer">
	</g>
</g>
<path id="text1883" fill="#FF0000" d="M18.684,12.234h6.396v21.359c0,2.947-0.842,5.149-2.525,6.607
	c-1.672,1.458-4.208,2.187-7.609,2.187H13.65v-4.611h0.997c1.329,0,2.332-0.354,3.007-1.062c0.687-0.708,1.03-1.748,1.03-3.121
	V12.234"/>
<path id="text3919" fill="#FF0000" d="M119.996,177H113.6v-21.359c0-2.945,0.842-5.147,2.525-6.605
	c1.672-1.458,4.208-2.188,7.609-2.188h1.296v4.61h-0.997c-1.329,0-2.331,0.354-3.007,1.062c-0.687,0.709-1.03,1.748-1.03,3.121V177"
	/>
<path id="path1608" fill="#FF0000" d="M20.41,48.665c-4.126,8.246-7.134,12.498-13.34,17.04c5.873,4.487,10.013,9.125,13.46,16.621
	c3.079-7.122,6.846-12.43,13.39-16.843C27.338,62.133,23.527,56.828,20.41,48.665z"/>
<path id="path1518" fill="#FF0000" d="M118.339,106.34c-4.125,8.246-7.134,12.498-13.339,17.039
	c5.873,4.488,10.013,9.125,13.46,16.621c3.08-7.121,6.847-12.43,13.39-16.844C125.268,119.809,121.458,114.504,118.339,106.34z"/>
<path id="text1386_1_" fill="#FF0000" d="M68.138,64.848H80.93v42.718c0,5.894-1.684,10.299-5.051,13.213
	c-3.345,2.916-8.417,4.373-15.218,4.373H58.07v-9.221h1.993c2.658,0,4.663-0.707,6.014-2.123c1.374-1.416,2.061-3.496,2.061-6.242
	V64.848"/>
</svg>
